<?xml version="1.0" encoding="UTF-8"?><svg id="Layer_1" xmlns="http://www.w3.org/2000/svg" viewBox="0 0 300 100"><defs><style>.cls-1{fill:#d0f438;}.cls-2{fill:#ffffff;}.cls-3{fill:#ffffff;}</style></defs><path class="cls-2" d="M80.92,10.57l-19.34,40.04h16.67l7.34,15.35h-31.68l-11.67,22.69h-20.01l11.34-22.69h-11.34l9.01-13.34c2.55-3.22,8.6-.96,10.66-2.68L59.69,15.02c.91-1.39,3.99-4.45,5.56-4.45h15.67Z"/><circle class="cls-1" cx="85.59" cy="36.27" r="10.69"/><path class="cls-3" d="M96.61,65.19l18.81-44.29h8.69l18.7,44.29h-8.53l-4.87-11.59h-19.63l-4.92,11.59h-8.26ZM112.41,46.6h14.65l-7.16-17.17h-.27l-7.22,17.17Z"/><path class="cls-3" d="M149.59,65.19v-24.66h-4.05v-8.15h8.31v6.34h2.3c.91-2.19,2.31-3.85,4.21-4.98,1.89-1.13,4.06-1.69,6.51-1.69h2.73v7h-3.12c-2.99,0-5.21.86-6.67,2.57-1.46,1.71-2.19,3.99-2.19,6.83v16.73h-8.04Z"/><path class="cls-3" d="M196.99,78.32v-17.88h-.22c-.95,1.71-2.32,3.04-4.1,3.99-1.79.95-3.92,1.42-6.4,1.42-3.13,0-5.82-.7-8.06-2.1-2.24-1.4-3.96-3.38-5.14-5.93-1.18-2.55-1.78-5.56-1.78-9.02s.61-6.47,1.83-9.02c1.22-2.55,3-4.53,5.33-5.93,2.33-1.4,5.17-2.1,8.53-2.1,2.7,0,5.01.51,6.94,1.53,1.93,1.02,3.48,2.48,4.65,4.37h2.3v-5.25h8.31v8.15h-4.05v37.78h-8.15ZM188.41,58.8c2.62,0,4.71-.74,6.26-2.21,1.55-1.48,2.32-3.47,2.32-5.99v-3.61c0-2.52-.78-4.51-2.32-5.99-1.55-1.48-3.64-2.21-6.26-2.21-2.92,0-5.14.88-6.67,2.65-1.53,1.77-2.3,4.22-2.3,7.35s.77,5.59,2.3,7.35c1.53,1.77,3.75,2.65,6.67,2.65Z"/><path class="cls-3" d="M211.37,65.19l18.81-44.29h8.69l18.7,44.29h-8.53l-4.87-11.59h-19.63l-4.92,11.59h-8.26ZM227.17,46.6h14.65l-7.16-17.17h-.27l-7.22,17.17Z"/><path class="cls-3" d="M263.04,65.19V20.91h8.31v44.29h-8.31Z"/><path class="cls-3" d="M96.28,92.48v-11.34h1.34v11.34h-1.34Z"/><path class="cls-3" d="M100.61,92.48v-7h-.7v-1.4h1.46v1.26h.59c.28-.47.67-.82,1.18-1.06.51-.24,1.09-.36,1.74-.36,1.06,0,1.9.31,2.52.92.63.62.94,1.44.94,2.47v5.17h-1.32v-4.97c0-.79-.22-1.4-.65-1.81-.43-.42-1.07-.62-1.9-.62s-1.45.21-1.89.62c-.44.42-.66,1.02-.66,1.81v4.97h-1.32Z"/><path class="cls-3" d="M112.59,92.48c-.39,0-.7-.1-.92-.3s-.33-.5-.33-.9v-6.19h-1.61v-1.01h1.62v-2.52h1.29v2.52h2.3v1.01h-2.28v6.36h2.51v1.04h-2.58Z"/><path class="cls-3" d="M120.46,92.64c-.86,0-1.61-.18-2.24-.54-.64-.36-1.13-.87-1.47-1.53s-.52-1.44-.52-2.33.17-1.65.52-2.3c.35-.65.83-1.15,1.46-1.51.63-.36,1.36-.53,2.2-.53.79,0,1.48.16,2.06.48.58.32,1.03.78,1.35,1.37.32.59.48,1.28.48,2.09v.59h-6.81c.04.96.32,1.71.85,2.25.53.54,1.23.81,2.11.81.61,0,1.12-.13,1.55-.39.42-.26.72-.64.88-1.13h1.34c-.22.85-.65,1.51-1.31,1.97-.66.47-1.47.7-2.44.7ZM117.56,87.42h5.46c-.07-.76-.33-1.34-.8-1.76s-1.08-.63-1.83-.63-1.38.21-1.88.63c-.5.42-.82,1.01-.95,1.76Z"/><path class="cls-3" d="M126.33,92.48v-11.76h1.32v11.76h-1.32Z"/><path class="cls-3" d="M130.25,92.48v-11.76h1.32v11.76h-1.32Z"/><path class="cls-3" d="M134.83,82.81c-.23,0-.43-.08-.59-.24-.16-.16-.25-.36-.25-.6s.08-.43.25-.59c.16-.16.36-.25.59-.25s.43.08.59.25c.16.16.25.36.25.59s-.08.43-.25.6c-.16.16-.36.24-.59.24ZM134.17,92.48v-8.4h1.32v8.4h-1.32Z"/><path class="cls-3" d="M141.48,96.01c-1.13,0-2.05-.24-2.76-.71-.71-.48-1.13-1.13-1.26-1.97h1.4c.26,1.03,1.13,1.54,2.62,1.54.92,0,1.63-.22,2.13-.66.49-.44.74-1.07.74-1.89v-1.43h-.07c-.22.5-.57.9-1.08,1.18s-1.09.42-1.76.42c-.8,0-1.5-.18-2.09-.53-.59-.35-1.04-.84-1.36-1.48-.32-.64-.48-1.4-.48-2.28,0-1.32.35-2.36,1.06-3.13.71-.77,1.67-1.16,2.89-1.16.67,0,1.25.12,1.72.36s.85.6,1.13,1.06h.59v-1.26h1.46v1.4h-.7v6.93c0,1.13-.37,2.01-1.1,2.65-.73.63-1.76.95-3.09.95ZM141.75,91.33c.77,0,1.4-.23,1.88-.69s.72-1.06.72-1.81v-1.29c0-.75-.24-1.35-.72-1.81-.48-.46-1.11-.69-1.88-.69-.91,0-1.62.28-2.14.83-.52.55-.78,1.32-.78,2.31s.26,1.76.78,2.31c.52.55,1.23.83,2.14.83Z"/><path class="cls-3" d="M152.11,92.64c-.86,0-1.61-.18-2.24-.54-.64-.36-1.13-.87-1.47-1.53s-.52-1.44-.52-2.33.17-1.65.52-2.3c.35-.65.83-1.15,1.46-1.51.63-.36,1.36-.53,2.2-.53.79,0,1.48.16,2.06.48.58.32,1.03.78,1.35,1.37.32.59.48,1.28.48,2.09v.59h-6.81c.04.96.32,1.71.85,2.25.53.54,1.23.81,2.11.81.61,0,1.12-.13,1.55-.39.42-.26.72-.64.88-1.13h1.34c-.22.85-.65,1.51-1.31,1.97-.66.47-1.47.7-2.44.7ZM149.21,87.42h5.46c-.07-.76-.33-1.34-.8-1.76s-1.08-.63-1.83-.63-1.38.21-1.88.63c-.5.42-.82,1.01-.95,1.76Z"/><path class="cls-3" d="M158.16,92.48v-7h-.7v-1.4h1.46v1.26h.59c.28-.47.67-.82,1.18-1.06.51-.24,1.09-.36,1.74-.36,1.06,0,1.9.31,2.52.92.63.62.94,1.44.94,2.47v5.17h-1.32v-4.97c0-.79-.22-1.4-.65-1.81-.43-.42-1.07-.62-1.9-.62s-1.45.21-1.89.62c-.44.42-.66,1.02-.66,1.81v4.97h-1.32Z"/><path class="cls-3" d="M171.94,92.64c-.85,0-1.59-.18-2.21-.54s-1.11-.87-1.45-1.52-.51-1.42-.51-2.31.17-1.66.5-2.31c.34-.65.82-1.16,1.44-1.52s1.37-.54,2.23-.54c1,0,1.83.24,2.51.73s1.13,1.21,1.36,2.15h-1.34c-.17-.6-.46-1.04-.88-1.32s-.97-.42-1.64-.42c-.91,0-1.61.28-2.11.85-.5.56-.75,1.36-.75,2.37s.25,1.8.75,2.37,1.2.85,2.11.85c1.4,0,2.26-.63,2.58-1.88h1.34c-.22.99-.68,1.74-1.36,2.25-.68.51-1.54.77-2.56.77Z"/><path class="cls-3" d="M181.1,92.64c-.86,0-1.61-.18-2.24-.54-.64-.36-1.13-.87-1.47-1.53s-.52-1.44-.52-2.33.17-1.65.52-2.3c.35-.65.83-1.15,1.46-1.51.63-.36,1.36-.53,2.2-.53.79,0,1.48.16,2.06.48.58.32,1.03.78,1.35,1.37.32.59.48,1.28.48,2.09v.59h-6.81c.04.96.32,1.71.85,2.25.53.54,1.23.81,2.11.81.61,0,1.12-.13,1.55-.39.42-.26.72-.64.88-1.13h1.34c-.22.85-.65,1.51-1.31,1.97-.66.47-1.47.7-2.44.7ZM178.2,87.42h5.46c-.07-.76-.33-1.34-.8-1.76s-1.08-.63-1.83-.63-1.38.21-1.88.63c-.5.42-.82,1.01-.95,1.76Z"/><path class="cls-3" d="M186.14,94.69v-.84h.5c.24,0,.43-.06.56-.19s.2-.32.2-.57v-.62h-.76v-1.68h1.68v2.3c0,.5-.14.9-.41,1.18s-.67.42-1.18.42h-.59Z"/><path class="cls-3" d="M194.97,92.48v-11.34h5.39c.65,0,1.22.12,1.7.35s.86.57,1.13,1c.27.43.41.95.41,1.55,0,.65-.2,1.19-.62,1.6s-.88.67-1.4.78v.06c.37.04.76.16,1.16.37.4.21.73.52,1.01.92.28.41.41.92.41,1.53s-.15,1.2-.45,1.68c-.3.48-.72.85-1.25,1.11-.53.26-1.14.39-1.83.39h-5.64ZM196.31,86.03h3.89c.63,0,1.13-.16,1.5-.49.36-.33.55-.79.55-1.39s-.18-1.07-.55-1.39c-.36-.32-.86-.48-1.5-.48h-3.89v3.75ZM196.31,91.33h3.99c.77,0,1.39-.18,1.83-.54s.67-.88.67-1.56-.22-1.21-.67-1.55c-.44-.35-1.05-.52-1.83-.52h-4.01v4.17Z"/><path class="cls-3" d="M205.74,95.84v-1.04h2.09l.95-2.27-3.82-8.46h1.36l3.05,6.86h.07l2.9-6.86h1.26l-3.57,8.4-.9,2.1c-.17.38-.32.69-.46.92s-.42.34-.83.34h-2.1Z"/><path class="cls-3" d="M219.33,92.48v-11.34h3.98c1.23,0,2.29.23,3.19.68.89.45,1.58,1.1,2.06,1.95.48.85.72,1.86.72,3.04s-.24,2.18-.73,3.02c-.49.85-1.17,1.5-2.07,1.96-.89.46-1.95.69-3.17.69h-3.98ZM220.68,91.33h2.63c1.44,0,2.56-.39,3.37-1.18.81-.79,1.21-1.9,1.21-3.34s-.4-2.56-1.2-3.35c-.8-.78-1.93-1.18-3.37-1.18h-2.63v9.05Z"/><path class="cls-3" d="M235.02,92.64c-.86,0-1.61-.18-2.24-.54-.64-.36-1.13-.87-1.47-1.53s-.52-1.44-.52-2.33.17-1.65.52-2.3c.35-.65.83-1.15,1.46-1.51.63-.36,1.36-.53,2.2-.53.79,0,1.48.16,2.06.48.58.32,1.03.78,1.35,1.37.32.59.48,1.28.48,2.09v.59h-6.81c.04.96.32,1.71.85,2.25.53.54,1.23.81,2.11.81.61,0,1.12-.13,1.55-.39.42-.26.72-.64.88-1.13h1.34c-.22.85-.65,1.51-1.31,1.97-.66.47-1.47.7-2.44.7ZM232.12,87.42h5.46c-.07-.76-.33-1.34-.8-1.76s-1.08-.63-1.83-.63-1.38.21-1.88.63c-.5.42-.82,1.01-.95,1.76Z"/><path class="cls-3" d="M243.91,92.64c-1.14,0-2.04-.24-2.7-.71-.66-.47-1.03-1.13-1.09-1.98h1.32c.07.54.3.94.71,1.2.41.26,1.01.39,1.81.39,1.43,0,2.14-.46,2.14-1.37,0-.37-.11-.66-.33-.86s-.59-.35-1.11-.44l-1.83-.34c-1.52-.28-2.28-1.01-2.28-2.18,0-.76.28-1.35.85-1.79.57-.44,1.35-.66,2.34-.66s1.83.22,2.44.67c.61.45.96,1.07,1.06,1.88h-1.29c-.1-.5-.34-.86-.7-1.1-.36-.24-.87-.36-1.53-.36s-1.11.11-1.44.33c-.34.22-.5.54-.5.96,0,.32.11.57.33.75.22.18.58.32,1.07.41l1.82.34c.8.15,1.39.41,1.76.78s.56.88.56,1.51c0,.81-.29,1.44-.88,1.89-.59.45-1.43.67-2.52.67Z"/><path class="cls-3" d="M249.81,82.81c-.23,0-.43-.08-.59-.24-.16-.16-.25-.36-.25-.6s.08-.43.25-.59c.16-.16.36-.25.59-.25s.43.08.59.25c.16.16.25.36.25.59s-.08.43-.25.6c-.16.16-.36.24-.59.24ZM249.15,92.48v-8.4h1.32v8.4h-1.32Z"/><path class="cls-3" d="M256.46,96.01c-1.13,0-2.05-.24-2.76-.71-.71-.48-1.13-1.13-1.26-1.97h1.4c.26,1.03,1.13,1.54,2.62,1.54.92,0,1.63-.22,2.13-.66.49-.44.74-1.07.74-1.89v-1.43h-.07c-.22.5-.57.9-1.08,1.18s-1.09.42-1.76.42c-.8,0-1.5-.18-2.09-.53-.59-.35-1.04-.84-1.36-1.48-.32-.64-.48-1.4-.48-2.28,0-1.32.35-2.36,1.06-3.13.71-.77,1.67-1.16,2.89-1.16.67,0,1.25.12,1.72.36s.85.6,1.13,1.06h.59v-1.26h1.46v1.4h-.7v6.93c0,1.13-.37,2.01-1.1,2.65-.73.63-1.76.95-3.09.95ZM256.73,91.33c.77,0,1.4-.23,1.88-.69s.72-1.06.72-1.81v-1.29c0-.75-.24-1.35-.72-1.81-.48-.46-1.11-.69-1.88-.69-.91,0-1.62.28-2.14.83-.52.55-.78,1.32-.78,2.31s.26,1.76.78,2.31c.52.55,1.23.83,2.14.83Z"/><path class="cls-3" d="M263.62,92.48v-7h-.7v-1.4h1.46v1.26h.59c.28-.47.67-.82,1.18-1.06.51-.24,1.09-.36,1.74-.36,1.06,0,1.9.31,2.52.92.63.62.94,1.44.94,2.47v5.17h-1.32v-4.97c0-.79-.22-1.4-.65-1.81-.43-.42-1.07-.62-1.9-.62s-1.45.21-1.89.62c-.44.42-.66,1.02-.66,1.81v4.97h-1.32Z"/></svg>
