<?xml version="1.0" encoding="UTF-8"?>
<svg id="Layer_1" xmlns="http://www.w3.org/2000/svg" version="1.1" viewBox="0 0 120 41.04">
  <!-- Generator: Adobe Illustrator 29.7.1, SVG Export Plug-In . SVG Version: 2.1.1 Build 8)  -->
  <path d="M2.64,31.4L15.36,1.44h5.88l12.65,29.96h-5.77l-3.29-7.84h-13.28l-3.33,7.84H2.64ZM13.33,18.83h9.91l-4.84-11.61h-.18l-4.88,11.61Z"/>
  <path d="M38.03,31.4V14.72h-2.74v-5.51h5.62v4.29h1.55c.62-1.48,1.57-2.6,2.85-3.37,1.28-.76,2.75-1.15,4.4-1.15h1.85v4.73h-2.11c-2,0-3.49.58-4.49,1.74-1,1.16-1.5,2.7-1.5,4.62v11.32h-5.44Z"/>
  <path d="M69.65,40.28v-12.1h-.15c-.64,1.16-1.57,2.06-2.77,2.7-1.21.64-2.65.96-4.33.96-2.12,0-3.94-.47-5.45-1.42-1.52-.95-2.68-2.29-3.48-4.01-.8-1.73-1.2-3.76-1.2-6.1s.41-4.38,1.24-6.1c.83-1.73,2.03-3.06,3.61-4.01,1.58-.95,3.5-1.42,5.77-1.42,1.82,0,3.39.35,4.7,1.04,1.31.69,2.35,1.68,3.14,2.96h1.55v-3.55h5.62v5.51h-2.74v25.56h-5.51ZM63.84,27.08c1.78,0,3.19-.5,4.23-1.5,1.05-1,1.57-2.36,1.57-4.09v-2.37c0-1.73-.52-3.09-1.57-4.09-1.05-1-2.46-1.5-4.23-1.5-1.97,0-3.48.6-4.51,1.79-1.04,1.2-1.55,2.85-1.55,4.97s.52,3.78,1.55,4.98c1.04,1.2,2.54,1.79,4.51,1.79Z"/>
  <path d="M111.99,1.44v28.19L100.09,1.44h-5.88l-12.72,29.96h5.58l3.33-7.84h13.28l3.29,7.84h11.03V1.44h-6ZM92.17,18.83l4.88-11.61h.18l4.84,11.61h-9.91Z"/>
</svg>