<?xml version="1.0" encoding="UTF-8"?><svg id="Layer_1" xmlns="http://www.w3.org/2000/svg" viewBox="0 0 300 100"><defs><style>.cls-1{fill:#d0f438;}.cls-2{fill:#0432a5;}</style></defs><path class="cls-2" d="M66.29,54.44l20.56.02c.87-.09,3.03-.81,3.4-1.54l3.74-7.32-23.32-.52h-.04s-8.87-.08-8.87-.08h-.09s-13.39.04-13.39.04l-4.77,9.35,13.31.12"/><path class="cls-2" d="M83.37,65.98l-9.6,18.18c-.49.72-2.13,2.3-2.95,2.29l-8.22-.12,10.45-20.85.02-.03,4.08-7.88.04-.08,6.3-11.81,10.49.15-6.12,11.81"/><path class="cls-2" d="M53.83,34.2l9.33-18.32c.48-.73,2.1-2.33,2.92-2.33h8.22l-10.15,21-.02.03-3.97,7.94-.04.08-6.12,11.9h-10.5l5.95-11.9"/><circle class="cls-1" cx="58.45" cy="65.49" r="5.62"/><circle class="cls-1" cx="79.92" cy="34.03" r="5.62"/><path d="M100.81,59.48l9.93-23.39h4.59l9.88,23.39h-4.5l-2.57-6.12h-10.37l-2.6,6.12h-4.36ZM109.15,49.67h7.74l-3.78-9.07h-.14l-3.81,9.07Z"/><path d="M128.79,59.48v-13.02h-2.14v-4.3h4.39v3.35h1.21c.48-1.16,1.22-2.03,2.22-2.63,1-.6,2.15-.89,3.44-.89h1.44v3.7h-1.65c-1.58,0-2.75.45-3.52,1.36-.77.91-1.15,2.11-1.15,3.61v8.83h-4.24Z"/><path d="M153.82,66.41v-9.44h-.12c-.5.9-1.22,1.61-2.17,2.11-.94.5-2.07.75-3.38.75-1.66,0-3.07-.37-4.26-1.11-1.18-.74-2.09-1.79-2.71-3.13-.63-1.35-.94-2.94-.94-4.76s.32-3.42.97-4.76c.64-1.35,1.58-2.39,2.81-3.13,1.23-.74,2.73-1.11,4.5-1.11,1.42,0,2.65.27,3.67.81,1.02.54,1.84,1.31,2.45,2.31h1.21v-2.77h4.39v4.3h-2.14v19.95h-4.3ZM149.29,56.11c1.39,0,2.49-.39,3.31-1.17.82-.78,1.23-1.83,1.23-3.16v-1.91c0-1.33-.41-2.38-1.23-3.16-.82-.78-1.92-1.17-3.31-1.17-1.54,0-2.71.47-3.52,1.4s-1.21,2.23-1.21,3.88.4,2.95,1.21,3.88,1.98,1.4,3.52,1.4Z"/><path d="M172.82,59.83c-3.1,0-5.57-.68-7.41-2.04-1.84-1.36-2.84-3.24-3.02-5.64h4.53c.15,1.35.75,2.37,1.78,3.06,1.03.69,2.45,1.04,4.26,1.04,1.64,0,2.87-.27,3.71-.82.84-.55,1.26-1.35,1.26-2.41,0-.83-.27-1.5-.82-2.01-.55-.51-1.41-.88-2.58-1.11l-4.73-.95c-2.12-.44-3.71-1.19-4.78-2.25s-1.6-2.42-1.6-4.1c0-2.14.8-3.81,2.4-5.02,1.6-1.21,3.78-1.82,6.55-1.82s5.05.63,6.77,1.91,2.7,3.05,2.93,5.34h-4.53c-.58-2.5-2.39-3.75-5.43-3.75-1.37,0-2.44.26-3.22.77-.78.51-1.17,1.24-1.17,2.18,0,1.48,1.06,2.44,3.18,2.89l4.91.98c2.19.44,3.82,1.21,4.87,2.29,1.05,1.09,1.57,2.53,1.57,4.32,0,2.27-.82,4.03-2.47,5.28-1.65,1.25-3.96,1.88-6.94,1.88Z"/><path d="M193.72,59.83c-1.85,0-3.46-.37-4.84-1.11-1.38-.74-2.44-1.79-3.18-3.15-.74-1.36-1.11-2.96-1.11-4.81s.37-3.44,1.1-4.78,1.77-2.37,3.12-3.09c1.35-.72,2.92-1.08,4.73-1.08s3.29.34,4.56,1.02c1.27.68,2.25,1.67,2.95,2.95.69,1.28,1.04,2.8,1.04,4.55v1.5h-13.37c.17,1.46.69,2.58,1.54,3.36.86.78,2,1.17,3.42,1.17,1.06,0,1.92-.2,2.58-.59s1.13-.99,1.4-1.78h4.33c-.4,1.83-1.33,3.26-2.79,4.29-1.45,1.03-3.29,1.54-5.5,1.54ZM188.84,48.92h9.12c-.15-1.19-.61-2.1-1.37-2.73-.76-.62-1.78-.94-3.05-.94s-2.28.32-3.09.95c-.81.63-1.35,1.54-1.62,2.71Z"/><path d="M206.57,59.48v-13.02h-2.14v-4.3h4.39v3.35h1.21c.48-1.16,1.22-2.03,2.22-2.63,1-.6,2.15-.89,3.44-.89h1.44v3.7h-1.65c-1.58,0-2.75.45-3.52,1.36-.77.91-1.16,2.11-1.16,3.61v8.83h-4.24Z"/><path d="M225.42,59.48l-7.42-17.32h4.53l5.14,12.47h.12l5.05-12.47h4.42l-7.42,17.32h-4.42Z"/><path d="M247.05,59.83c-1.85,0-3.46-.37-4.84-1.11-1.38-.74-2.44-1.79-3.18-3.15-.74-1.36-1.11-2.96-1.11-4.81s.37-3.44,1.1-4.78,1.77-2.37,3.12-3.09c1.35-.72,2.92-1.08,4.73-1.08s3.29.34,4.56,1.02c1.27.68,2.25,1.67,2.95,2.95.69,1.28,1.04,2.8,1.04,4.55v1.5h-13.37c.17,1.46.69,2.58,1.54,3.36.86.78,2,1.17,3.42,1.17,1.06,0,1.92-.2,2.58-.59s1.13-.99,1.4-1.78h4.33c-.4,1.83-1.33,3.26-2.79,4.29-1.45,1.03-3.29,1.54-5.5,1.54ZM242.17,48.92h9.12c-.15-1.19-.61-2.1-1.37-2.73-.76-.62-1.78-.94-3.05-.94s-2.28.32-3.09.95c-.81.63-1.35,1.54-1.62,2.71Z"/></svg>