<?xml version="1.0" encoding="UTF-8"?><svg id="Layer_1" xmlns="http://www.w3.org/2000/svg" viewBox="0 0 300 100"><defs><style>.cls-1{fill:#d0f438;}.cls-2{fill:#0432a5;}</style></defs><circle class="cls-1" cx="66.04" cy="28.59" r="7.21"/><path class="cls-2" d="M82.37,58.13l-9.42-18.48c-.48-.74-2.11-2.35-2.94-2.35h-8.3s10.24,21.19,10.24,21.19l.02.03,4,8.01.04.08,6.18,12.01h10.59s-6-12.01-6-12.01"/><path class="cls-2" d="M49.71,58.13l9.42-18.48c.48-.74,2.11-2.35,2.94-2.35h8.3s-10.24,21.19-10.24,21.19l-.02.03-4,8.01-.04.08-6.18,12.01h-10.59s6-12.01,6-12.01"/><path d="M97.83,63.66l9.93-23.39h4.59l9.88,23.39h-4.5l-2.57-6.12h-10.37l-2.6,6.12h-4.36ZM106.18,53.85h7.74l-3.78-9.07h-.14l-3.81,9.07Z"/><path d="M125.81,63.66v-13.02h-2.14v-4.3h4.39v3.35h1.21c.48-1.16,1.22-2.03,2.22-2.63,1-.6,2.15-.89,3.44-.89h1.44v3.7h-1.65c-1.58,0-2.75.45-3.52,1.36-.77.91-1.16,2.11-1.16,3.61v8.83h-4.24Z"/><path d="M150.84,70.59v-9.44h-.12c-.5.9-1.22,1.61-2.17,2.11s-2.07.75-3.38.75c-1.66,0-3.08-.37-4.26-1.11-1.18-.74-2.09-1.79-2.71-3.13-.63-1.35-.94-2.94-.94-4.76s.32-3.42.97-4.76,1.58-2.39,2.82-3.13c1.23-.74,2.73-1.11,4.5-1.11,1.42,0,2.65.27,3.67.81,1.02.54,1.84,1.31,2.45,2.31h1.21v-2.77h4.39v4.3h-2.14v19.95h-4.3ZM146.31,60.28c1.39,0,2.49-.39,3.31-1.17.82-.78,1.23-1.83,1.23-3.16v-1.91c0-1.33-.41-2.38-1.23-3.16s-1.92-1.17-3.31-1.17c-1.54,0-2.71.47-3.52,1.4s-1.21,2.23-1.21,3.88.4,2.95,1.21,3.88,1.98,1.4,3.52,1.4Z"/><path d="M171.11,64.01c-2.27,0-4.26-.51-5.98-1.52-1.71-1.01-3.05-2.42-4.01-4.23-.96-1.81-1.44-3.9-1.44-6.27s.5-4.54,1.49-6.35,2.39-3.21,4.19-4.22c1.8-1,3.89-1.5,6.28-1.5,1.91,0,3.59.32,5.05.95,1.46.63,2.66,1.55,3.59,2.76.93,1.2,1.53,2.64,1.78,4.32h-4.56c-.25-1.33-.88-2.35-1.89-3.08-1.01-.72-2.33-1.08-3.97-1.08-1.52,0-2.85.33-3.98,1s-2.01,1.61-2.63,2.84-.92,2.7-.92,4.39.31,3.14.94,4.39c.63,1.25,1.51,2.22,2.64,2.92,1.13.69,2.45,1.04,3.96,1.04,1.17,0,2.22-.19,3.15-.58.92-.38,1.65-.91,2.18-1.59s.79-1.43.79-2.28v-1.07h-6.53v-3.44h7.42c1.12,0,1.96.27,2.54.82.58.55.87,1.35.87,2.41v9.01h-4.07v-2.95h-.14c-.52,1.04-1.37,1.85-2.56,2.43-1.18.58-2.57.87-4.17.87Z"/><path d="M193.2,63.98c-2.37,0-4.19-.63-5.47-1.89-1.28-1.26-1.92-2.97-1.92-5.12v-10.63h4.3v9.76c0,1.35.35,2.36,1.04,3.05.69.68,1.72,1.02,3.09,1.02,1.44,0,2.55-.37,3.32-1.1.77-.73,1.15-1.76,1.15-3.09v-9.64h4.3v13.02h2.17v4.3h-4.42v-2.77h-1.21c-.67,1-1.52,1.77-2.53,2.29s-2.29.79-3.83.79Z"/><path d="M213.67,63.98c-2.02,0-3.6-.49-4.75-1.47-1.15-.98-1.72-2.28-1.72-3.9s.58-3,1.75-3.93c1.16-.92,2.84-1.39,5.04-1.39h5.28v-.69c0-2.12-1.23-3.18-3.7-3.18-2.1,0-3.36.75-3.78,2.25h-4.3c.37-1.85,1.24-3.26,2.63-4.23,1.39-.97,3.2-1.46,5.46-1.46,2.54,0,4.47.57,5.8,1.72s1.99,2.81,1.99,5.01v6.64h2.05v4.3h-4.42v-2.77h-1.21c-.6.98-1.4,1.74-2.41,2.28-1.01.54-2.25.81-3.71.81ZM214.3,60.66c.94,0,1.79-.18,2.54-.53.75-.36,1.34-.84,1.78-1.44.43-.61.65-1.29.65-2.04v-.4h-5.05c-1.94,0-2.92.72-2.92,2.17,0,.71.26,1.27.79,1.66.53.39,1.27.59,2.21.59Z"/><path d="M229.23,63.66v-13.02h-2.14v-4.3h4.39v3.35h1.21c.48-1.16,1.22-2.03,2.22-2.63,1-.6,2.15-.89,3.44-.89h1.44v3.7h-1.65c-1.58,0-2.75.45-3.52,1.36-.77.91-1.16,2.11-1.16,3.61v8.83h-4.24Z"/><path d="M248.98,64.01c-1.77,0-3.27-.37-4.5-1.11-1.23-.74-2.17-1.79-2.82-3.15-.64-1.36-.97-2.94-.97-4.75s.31-3.42.94-4.76c.62-1.35,1.53-2.39,2.71-3.13,1.18-.74,2.6-1.11,4.26-1.11,1.31,0,2.43.25,3.38.74.94.49,1.67,1.2,2.17,2.12h.12v-9.44h4.3v19.95h2.14v4.3h-4.39v-2.77h-1.21c-.62,1-1.43,1.77-2.45,2.31s-2.24.81-3.67.81ZM249.73,60.28c1.39,0,2.49-.39,3.31-1.17.82-.78,1.23-1.83,1.23-3.16v-1.91c0-1.33-.41-2.38-1.23-3.16s-1.92-1.17-3.31-1.17c-1.54,0-2.71.47-3.52,1.4s-1.21,2.23-1.21,3.88.4,2.95,1.21,3.88,1.98,1.4,3.52,1.4Z"/></svg>