<?xml version="1.0" encoding="UTF-8"?><svg id="Layer_1" xmlns="http://www.w3.org/2000/svg" viewBox="0 0 300 100"><defs><style>.cls-1{fill:#d0f438;}.cls-2{fill:#0432a5;}</style></defs><path d="M124.2,61.66l9.93-23.39h4.59l9.88,23.39h-4.5l-2.57-6.12h-10.37l-2.6,6.12h-4.36ZM132.54,51.85h7.74l-3.78-9.07h-.14l-3.81,9.07Z"/><path d="M152.18,61.66v-13.02h-2.14v-4.3h4.39v3.35h1.21c.48-1.16,1.22-2.03,2.22-2.63,1-.6,2.15-.89,3.44-.89h1.44v3.7h-1.65c-1.58,0-2.75.45-3.52,1.36-.77.91-1.15,2.11-1.15,3.61v8.83h-4.24Z"/><path d="M177.21,68.59v-9.44h-.12c-.5.9-1.22,1.61-2.17,2.11-.94.5-2.07.75-3.38.75-1.66,0-3.07-.37-4.26-1.11-1.18-.74-2.09-1.79-2.71-3.13-.63-1.35-.94-2.94-.94-4.76s.32-3.42.97-4.76c.64-1.35,1.58-2.39,2.81-3.13,1.23-.74,2.73-1.11,4.5-1.11,1.42,0,2.65.27,3.67.81,1.02.54,1.84,1.31,2.45,2.31h1.21v-2.77h4.39v4.3h-2.14v19.95h-4.3ZM172.68,58.28c1.39,0,2.49-.39,3.31-1.17.82-.78,1.23-1.83,1.23-3.16v-1.91c0-1.33-.41-2.38-1.23-3.16-.82-.78-1.92-1.17-3.31-1.17-1.54,0-2.71.47-3.52,1.4s-1.21,2.23-1.21,3.88.4,2.95,1.21,3.88,1.98,1.4,3.52,1.4Z"/><path d="M187.34,61.66v-23.39h4.39v23.39h-4.39Z"/><path d="M197.59,61.66v-13.02h-2.14v-4.3h4.42v2.77h1.21c.65-.98,1.49-1.74,2.51-2.28,1.02-.54,2.27-.81,3.75-.81,2.37,0,4.2.65,5.5,1.96,1.3,1.31,1.95,3.05,1.95,5.23v10.45h-4.3v-9.64c0-1.37-.36-2.41-1.08-3.12-.72-.71-1.79-1.07-3.22-1.07s-2.45.36-3.19,1.07c-.74.71-1.11,1.75-1.11,3.12v9.64h-4.3Z"/><path d="M223.89,61.66c-1.14,0-2.02-.29-2.64-.87-.63-.58-.94-1.45-.94-2.63v-10.48h-3.06v-3.35h3.09v-5.2h4.21v5.2h4.19v3.35h-4.13v10.6h4.53v3.38h-5.25Z"/><path d="M240.04,62.01c-1.85,0-3.46-.37-4.84-1.11-1.38-.74-2.44-1.79-3.18-3.15-.74-1.36-1.11-2.96-1.11-4.81s.37-3.44,1.1-4.78,1.77-2.37,3.12-3.09c1.35-.72,2.92-1.08,4.73-1.08s3.29.34,4.56,1.03c1.27.68,2.25,1.67,2.95,2.95.69,1.28,1.04,2.8,1.04,4.55v1.5h-13.37c.17,1.46.69,2.58,1.54,3.36.86.78,2,1.17,3.42,1.17,1.06,0,1.92-.2,2.58-.59s1.13-.99,1.4-1.78h4.33c-.4,1.83-1.33,3.26-2.79,4.29-1.45,1.03-3.29,1.54-5.5,1.54ZM235.16,51.09h9.12c-.15-1.19-.61-2.1-1.37-2.73-.76-.62-1.78-.94-3.05-.94s-2.28.32-3.09.95c-.81.63-1.35,1.54-1.62,2.71Z"/><path d="M251.64,61.66v-24.25h4.3v24.25h-4.3Z"/><path class="cls-2" d="M64.69,58.69l-10.53,19.93c-.53.79-2.33,2.52-3.23,2.51l-9.01-.13,11.46-22.86.02-.04,4.48-8.64.05-.09,6.9-12.95,11.51.17-6.71,12.95"/><path class="cls-2" d="M97.58,58.69l-10.53,19.93c-.53.79-2.33,2.52-3.23,2.51l-9.01-.13,11.46-22.86.02-.04,4.48-8.64.05-.09,6.9-12.95,11.51.17-6.71,12.95"/><circle class="cls-1" cx="75.85" cy="25.04" r="6.16"/><circle class="cls-1" cx="95.85" cy="39.41" r="6.16"/><path class="cls-2" d="M84.51,36.56l28.93.1c1.1-.08,1.82-.74,1.98-1.42l1.82-7.49-31.14.12h-.05s-11.73-.11-11.73-.11h-.12s-17.63-.02-17.63-.02l-2.11,8.68,17.59.16"/></svg>