<?xml version="1.0" encoding="UTF-8"?><svg id="Layer_1" xmlns="http://www.w3.org/2000/svg" viewBox="0 0 300 100"><defs><style>.cls-1{fill:#d0f438;}.cls-2{fill:#0432a5;}</style></defs><path class="cls-2" d="M77.45,42.65h28.01c1.06-.08,1.6-.69,1.74-1.32l1.43-6.27-29.86-.42h-.05s-11.31-.06-11.31-.06h-.11s-16.98.04-16.98.04l-1.82,8,16.95.09"/><path class="cls-2" d="M67.14,63.8l26.85.13c1.02-.07,1.53-.64,1.66-1.23l1.39-6.14-28.68-.29h-.05s-10.84-.11-10.84-.11h-.11s-16.28-.04-16.28-.04l-1.71,7.52,16.25.16"/><path class="cls-2" d="M72.58,53.49l26.39.1c1.01-.08,1.66-.68,1.81-1.3l1.66-6.83-28.41.11h-.05s-10.7-.1-10.7-.1h-.11s-16.08-.01-16.08-.01l-1.92,7.91,16.05.15"/><circle class="cls-1" cx="107.8" cy="49.52" r="4.07"/><circle class="cls-1" cx="42.27" cy="38.64" r="4.07"/><circle class="cls-1" cx="32.74" cy="60.03" r="4.07"/><path d="M121.45,58.66l9.93-23.39h4.59l9.88,23.39h-4.5l-2.57-6.12h-10.37l-2.6,6.12h-4.36ZM129.8,48.85h7.74l-3.78-9.07h-.14l-3.81,9.07Z"/><path d="M149.43,58.66v-13.02h-2.14v-4.3h4.39v3.35h1.21c.48-1.16,1.22-2.03,2.22-2.63,1-.6,2.15-.89,3.44-.89h1.44v3.7h-1.65c-1.58,0-2.75.45-3.52,1.36-.77.91-1.15,2.11-1.15,3.61v8.83h-4.24Z"/><path d="M174.46,65.59v-9.44h-.12c-.5.9-1.22,1.61-2.17,2.11-.94.5-2.07.75-3.38.75-1.66,0-3.07-.37-4.26-1.11-1.18-.74-2.09-1.79-2.71-3.13-.63-1.35-.94-2.94-.94-4.76s.32-3.42.97-4.76c.64-1.35,1.58-2.39,2.81-3.13,1.23-.74,2.73-1.11,4.5-1.11,1.42,0,2.65.27,3.67.81,1.02.54,1.84,1.31,2.45,2.31h1.21v-2.77h4.39v4.3h-2.14v19.95h-4.3ZM169.93,55.28c1.39,0,2.49-.39,3.31-1.17.82-.78,1.23-1.83,1.23-3.16v-1.91c0-1.33-.41-2.38-1.23-3.16-.82-.78-1.92-1.17-3.31-1.17-1.54,0-2.71.47-3.52,1.4s-1.21,2.23-1.21,3.88.4,2.95,1.21,3.88,1.98,1.4,3.52,1.4Z"/><path d="M188.87,58.66h-4.42v-23.39h16.54v3.81h-12.13v5.89h11.23v3.81h-11.23v9.88Z"/><path d="M203.74,58.66v-24.25h4.3v24.25h-4.3Z"/><path d="M220.46,59.01c-1.87,0-3.49-.37-4.87-1.11-1.38-.74-2.45-1.79-3.21-3.13-.76-1.35-1.14-2.94-1.14-4.76s.38-3.45,1.14-4.79c.76-1.35,1.83-2.39,3.22-3.12,1.39-.73,3-1.1,4.85-1.1s3.51.37,4.86,1.1c1.36.73,2.41,1.77,3.16,3.12.75,1.35,1.13,2.95,1.13,4.79s-.38,3.42-1.13,4.78c-.75,1.36-1.81,2.4-3.18,3.13-1.37.73-2.98,1.1-4.85,1.1ZM220.46,55.25c1.54,0,2.73-.47,3.58-1.4.85-.93,1.27-2.22,1.27-3.85s-.42-2.95-1.27-3.87c-.85-.92-2.04-1.39-3.58-1.39s-2.77.46-3.62,1.39-1.29,2.2-1.29,3.84.43,2.95,1.29,3.88c.86.93,2.06,1.4,3.62,1.4Z"/><path d="M236.19,58.66l-5.57-17.32h4.42l3.64,11.98h.14l4.27-11.98h4.13l4.27,11.98h.14l3.64-11.98h4.36l-5.54,17.32h-4.62l-4.27-11.75h-.12l-4.27,11.75h-4.62Z"/></svg>