<?xml version="1.0" encoding="UTF-8"?><svg id="Layer_1" xmlns="http://www.w3.org/2000/svg" viewBox="0 0 300 100"><defs><style>.cls-1{fill:#d0f438;}.cls-2{fill:#0432a5;}</style></defs><path class="cls-2" d="M100.41,37.95l13.63,6.95c.54.36,1.74,1.56,1.74,2.17v6.12l-15.63-7.55h-.03s-5.91-2.96-5.91-2.96l-.06-.03-8.86-4.56v-7.81l8.86,4.43"/><path class="cls-2" d="M100.41,62.05l13.63-6.95c.54-.36,1.74-1.56,1.74-2.17v-6.12l-15.63,7.55h-.03s-5.91,2.96-5.91,2.96l-.06.03-8.86,4.56v7.81l8.86-4.43"/><path class="cls-2" d="M50.35,37.95l-13.63,6.95c-.54.36-1.74,1.56-1.74,2.17v6.12s15.63-7.55,15.63-7.55h.03s5.91-2.96,5.91-2.96l.06-.03,8.86-4.56v-7.81s-8.86,4.43-8.86,4.43"/><path class="cls-2" d="M50.35,62.05l-13.63-6.95c-.54-.36-1.74-1.56-1.74-2.17v-6.12s15.63,7.55,15.63,7.55h.03s5.91,2.96,5.91,2.96l.06.03,8.86,4.56v7.81s-8.86-4.43-8.86-4.43"/><path class="cls-2" d="M72.55,50.49l5.79-15.31c.28-.61,1.18-1.92,1.58-1.88l4,.32-6.36,17.58v.03s-2.48,6.64-2.48,6.64l-.03.07-3.79,9.95-5.1-.41,3.7-9.95"/><circle class="cls-1" cx="70.5" cy="41.14" r="3.29"/><circle class="cls-1" cx="82.01" cy="58.27" r="3.29"/><path d="M119.99,59.48l9.93-23.39h4.59l9.88,23.39h-4.5l-2.57-6.12h-10.37l-2.6,6.12h-4.36ZM128.33,49.67h7.74l-3.78-9.07h-.14l-3.81,9.07Z"/><path d="M147.97,59.48v-13.02h-2.14v-4.3h4.39v3.35h1.21c.48-1.16,1.22-2.03,2.22-2.63,1-.6,2.15-.89,3.44-.89h1.44v3.7h-1.65c-1.58,0-2.75.45-3.52,1.36-.77.91-1.16,2.11-1.16,3.61v8.83h-4.24Z"/><path d="M173,66.41v-9.44h-.12c-.5.9-1.22,1.61-2.17,2.11s-2.07.75-3.38.75c-1.66,0-3.08-.37-4.26-1.11-1.18-.74-2.09-1.79-2.71-3.13-.63-1.35-.94-2.94-.94-4.76s.32-3.42.97-4.76,1.58-2.39,2.82-3.13c1.23-.74,2.73-1.11,4.5-1.11,1.42,0,2.65.27,3.67.81,1.02.54,1.84,1.31,2.45,2.31h1.21v-2.77h4.39v4.3h-2.14v19.95h-4.3ZM168.47,56.11c1.39,0,2.49-.39,3.31-1.17.82-.78,1.23-1.83,1.23-3.16v-1.91c0-1.33-.41-2.38-1.23-3.16s-1.92-1.17-3.31-1.17c-1.54,0-2.71.47-3.52,1.4s-1.21,2.23-1.21,3.88.4,2.95,1.21,3.88,1.98,1.4,3.52,1.4Z"/><path d="M193.62,59.89c-2.37,0-4.44-.5-6.22-1.49-1.78-.99-3.16-2.39-4.13-4.2-.97-1.81-1.46-3.94-1.46-6.38s.49-4.57,1.46-6.38c.97-1.81,2.35-3.21,4.13-4.2s3.85-1.49,6.22-1.49c1.89,0,3.56.32,5.02.95,1.46.63,2.67,1.55,3.61,2.76.94,1.2,1.55,2.64,1.82,4.32h-4.53c-.25-1.33-.9-2.35-1.93-3.08-1.04-.72-2.37-1.08-3.98-1.08-2.31,0-4.13.73-5.46,2.18s-1.99,3.46-1.99,6.02.66,4.57,1.99,6.02,3.15,2.18,5.46,2.18c1.62,0,2.94-.36,3.98-1.08,1.04-.72,1.68-1.75,1.93-3.07h4.53c-.27,1.67-.88,3.11-1.82,4.32s-2.15,2.12-3.61,2.76c-1.46.64-3.14.95-5.02.95Z"/><path d="M214.84,59.83c-1.87,0-3.49-.37-4.87-1.11-1.38-.74-2.45-1.79-3.21-3.13-.76-1.35-1.14-2.94-1.14-4.76s.38-3.45,1.14-4.79c.76-1.35,1.83-2.39,3.22-3.12,1.39-.73,3-1.1,4.85-1.1s3.51.37,4.86,1.1c1.36.73,2.41,1.77,3.16,3.12.75,1.35,1.13,2.95,1.13,4.79s-.38,3.42-1.13,4.78c-.75,1.36-1.81,2.4-3.18,3.13-1.37.73-2.98,1.1-4.85,1.1ZM214.84,56.08c1.54,0,2.73-.47,3.58-1.4.85-.93,1.27-2.22,1.27-3.85s-.42-2.95-1.27-3.87c-.85-.92-2.04-1.39-3.58-1.39s-2.77.46-3.62,1.39-1.29,2.2-1.29,3.84.43,2.95,1.29,3.88c.86.93,2.06,1.4,3.62,1.4Z"/><path d="M234.41,59.83c-1.77,0-3.27-.37-4.5-1.11-1.23-.74-2.17-1.79-2.82-3.15-.64-1.36-.97-2.94-.97-4.75s.31-3.42.94-4.76c.62-1.35,1.53-2.39,2.71-3.13,1.18-.74,2.6-1.11,4.26-1.11,1.31,0,2.43.25,3.38.74.94.49,1.67,1.2,2.17,2.12h.12v-9.44h4.3v19.95h2.14v4.3h-4.39v-2.77h-1.21c-.62,1-1.43,1.77-2.45,2.31s-2.24.81-3.67.81ZM235.16,56.11c1.39,0,2.49-.39,3.31-1.17.82-.78,1.23-1.83,1.23-3.16v-1.91c0-1.33-.41-2.38-1.23-3.16s-1.92-1.17-3.31-1.17c-1.54,0-2.71.47-3.52,1.4s-1.21,2.23-1.21,3.88.4,2.95,1.21,3.88,1.98,1.4,3.52,1.4Z"/><path d="M257.31,59.83c-1.85,0-3.46-.37-4.84-1.11-1.38-.74-2.44-1.79-3.18-3.15-.74-1.36-1.11-2.96-1.11-4.81s.37-3.44,1.1-4.78,1.77-2.37,3.12-3.09c1.35-.72,2.92-1.08,4.73-1.08s3.29.34,4.56,1.02c1.27.68,2.25,1.67,2.95,2.95.69,1.28,1.04,2.8,1.04,4.55v1.5h-13.37c.17,1.46.69,2.58,1.54,3.36.86.78,2,1.17,3.42,1.17,1.06,0,1.92-.2,2.58-.59s1.13-.99,1.4-1.78h4.33c-.4,1.83-1.33,3.26-2.79,4.29-1.45,1.03-3.29,1.54-5.5,1.54ZM252.43,48.92h9.12c-.15-1.19-.61-2.1-1.37-2.73-.76-.62-1.78-.94-3.05-.94s-2.28.32-3.09.95c-.81.63-1.35,1.54-1.62,2.71Z"/></svg>