<?xml version="1.0" encoding="UTF-8"?><svg id="Layer_1" xmlns="http://www.w3.org/2000/svg" viewBox="0 0 300 100"><defs><style>.cls-1{fill:#d0f438;}.cls-2{fill:#0432a5;}</style></defs><circle class="cls-1" cx="73.38" cy="49.66" r="10.69"/><path class="cls-2" d="M94.08,34.15l17.94,9.14c.72.47,2.29,2.05,2.29,2.86v8.05l-20.57-9.94-.03-.02-7.77-3.88-.08-.04-11.66-6v-10.28l11.66,5.83"/><path class="cls-2" d="M52.41,34.15l-17.94,9.14c-.72.47-2.29,2.05-2.29,2.86v8.05s20.57-9.94,20.57-9.94l.03-.02,7.77-3.88.08-.04,11.66-6v-10.28s-11.66,5.83-11.66,5.83"/><path class="cls-2" d="M94.08,65.85l17.94-9.14c.72-.47,2.29-2.05,2.29-2.86v-8.05l-20.57,9.94-.03.02-7.77,3.88-.08.04-11.66,6v10.28l11.66-5.83"/><path class="cls-2" d="M52.41,65.85l-17.94-9.14c-.72-.47-2.29-2.05-2.29-2.86v-8.05s20.57,9.94,20.57,9.94l.03.02,7.77,3.88.08.04,11.66,6v10.28s-11.66-5.83-11.66-5.83"/><path d="M119.99,59.48l9.93-23.39h4.59l9.88,23.39h-4.5l-2.57-6.12h-10.37l-2.6,6.12h-4.36ZM128.34,49.67h7.74l-3.78-9.07h-.14l-3.81,9.07Z"/><path d="M147.97,59.48v-13.02h-2.14v-4.3h4.39v3.35h1.21c.48-1.16,1.22-2.03,2.22-2.63,1-.6,2.15-.89,3.44-.89h1.44v3.7h-1.65c-1.58,0-2.75.45-3.52,1.36-.77.91-1.15,2.11-1.15,3.61v8.83h-4.24Z"/><path d="M173,66.41v-9.44h-.12c-.5.9-1.22,1.61-2.17,2.11-.94.5-2.07.75-3.38.75-1.66,0-3.07-.37-4.26-1.11-1.18-.74-2.09-1.79-2.71-3.13-.63-1.35-.94-2.94-.94-4.76s.32-3.42.97-4.76c.64-1.35,1.58-2.39,2.81-3.13,1.23-.74,2.73-1.11,4.5-1.11,1.42,0,2.65.27,3.67.81,1.02.54,1.84,1.31,2.45,2.31h1.21v-2.77h4.39v4.3h-2.14v19.95h-4.3ZM168.47,56.11c1.39,0,2.49-.39,3.31-1.17.82-.78,1.23-1.83,1.23-3.16v-1.91c0-1.33-.41-2.38-1.23-3.16-.82-.78-1.92-1.17-3.31-1.17-1.54,0-2.71.47-3.52,1.4s-1.21,2.23-1.21,3.88.4,2.95,1.21,3.88,1.98,1.4,3.52,1.4Z"/><path d="M192,59.83c-3.1,0-5.57-.68-7.41-2.04-1.84-1.36-2.84-3.24-3.02-5.64h4.53c.15,1.35.75,2.37,1.78,3.06,1.03.69,2.45,1.04,4.26,1.04,1.64,0,2.87-.27,3.71-.82.84-.55,1.26-1.35,1.26-2.41,0-.83-.27-1.5-.82-2.01-.55-.51-1.41-.88-2.58-1.11l-4.73-.95c-2.12-.44-3.71-1.19-4.78-2.25s-1.6-2.42-1.6-4.1c0-2.14.8-3.81,2.4-5.02,1.6-1.21,3.78-1.82,6.55-1.82s5.05.64,6.77,1.91,2.7,3.05,2.93,5.34h-4.53c-.58-2.5-2.39-3.75-5.43-3.75-1.37,0-2.44.26-3.22.77-.78.51-1.17,1.24-1.17,2.18,0,1.48,1.06,2.44,3.18,2.89l4.91.98c2.19.44,3.82,1.21,4.87,2.29,1.05,1.09,1.57,2.53,1.57,4.32,0,2.27-.82,4.03-2.47,5.28-1.65,1.25-3.96,1.88-6.94,1.88Z"/><path d="M207.01,40.25c-.67,0-1.25-.24-1.72-.71-.47-.47-.71-1.04-.71-1.72s.24-1.25.71-1.72c.47-.47,1.04-.71,1.72-.71s1.25.24,1.72.71c.47.47.71,1.04.71,1.72s-.24,1.25-.71,1.72c-.47.47-1.04.71-1.72.71ZM204.88,59.48v-17.32h4.3v17.32h-4.3Z"/><path d="M221.42,66.76c-2.54,0-4.61-.52-6.19-1.54-1.59-1.03-2.53-2.47-2.81-4.32h4.53c.48,1.6,1.92,2.4,4.33,2.4,1.62,0,2.85-.37,3.7-1.11.85-.74,1.27-1.79,1.27-3.16v-2.48h-.14c-.5.96-1.22,1.69-2.17,2.19-.94.5-2.07.75-3.38.75-1.62,0-3.03-.36-4.24-1.08s-2.15-1.75-2.8-3.08c-.65-1.33-.98-2.89-.98-4.68,0-2.7.74-4.84,2.21-6.44,1.47-1.6,3.51-2.4,6.11-2.4,1.42,0,2.65.27,3.67.81,1.02.54,1.84,1.31,2.45,2.31h1.21v-2.77h4.42v4.3h-2.17v12.62c0,2.44-.78,4.34-2.34,5.67-1.56,1.34-3.78,2.01-6.67,2.01ZM221.62,55.73c1.39,0,2.48-.39,3.29-1.17.81-.78,1.21-1.83,1.21-3.16v-1.56c0-1.31-.41-2.35-1.23-3.12-.82-.77-1.91-1.16-3.28-1.16-1.52,0-2.7.45-3.54,1.34-.84.9-1.26,2.15-1.26,3.77s.42,2.86,1.26,3.74c.84.88,2.02,1.31,3.54,1.31Z"/><path d="M235.6,59.48v-24.25h4.3v9.5h.12c.56-.94,1.32-1.66,2.28-2.15.96-.49,2.1-.74,3.41-.74,2.17,0,3.9.65,5.18,1.96,1.28,1.31,1.92,3.05,1.92,5.23v10.45h-4.3v-9.64c0-1.37-.37-2.41-1.1-3.12s-1.8-1.07-3.21-1.07-2.47.36-3.21,1.07-1.1,1.75-1.1,3.12v9.64h-4.3Z"/><path d="M261.87,59.48c-1.14,0-2.02-.29-2.64-.87-.63-.58-.94-1.45-.94-2.63v-10.48h-3.06v-3.35h3.09v-5.2h4.21v5.2h4.19v3.35h-4.13v10.6h4.53v3.38h-5.25Z"/></svg>