<?xml version="1.0" encoding="UTF-8"?><svg id="Layer_1" xmlns="http://www.w3.org/2000/svg" viewBox="0 0 300 100"><defs><style>.cls-1{fill:#d0f438;}.cls-2{fill:#0432a5;}</style></defs><path class="cls-2" d="M66.12,42.06l9.14-17.93c.47-.71,2.05-2.28,2.85-2.28h8.05l-9.93,20.56-.02.03-3.88,7.77-.04.08-5.99,11.65h-10.27l5.82-11.65"/><path class="cls-2" d="M97.91,41.78l9.14-17.93c.47-.71,2.05-2.28,2.85-2.28h8.05l-9.93,20.56-.02.03-3.88,7.77-.04.08-5.99,11.65h-10.27l5.82-11.65"/><path class="cls-2" d="M74.11,58.69l9.14-17.93c.47-.71,2.05-2.28,2.85-2.28h8.05l-9.93,20.56-.02.03-3.88,7.77-.04.08-5.99,11.65h-10.27l5.82-11.65"/><path class="cls-2" d="M41.75,58.69l9.14-17.93c.47-.71,2.05-2.28,2.85-2.28h8.05l-9.93,20.56-.02.03-3.88,7.77-.04.08-5.99,11.65h-10.27l5.82-11.65"/><circle class="cls-1" cx="92.18" cy="29.46" r="4.37"/><circle class="cls-1" cx="59.13" cy="70.67" r="4.37"/><path d="M119.99,59.48l9.93-23.39h4.59l9.88,23.39h-4.5l-2.57-6.12h-10.37l-2.6,6.12h-4.36ZM128.34,49.67h7.74l-3.78-9.07h-.14l-3.81,9.07Z"/><path d="M147.97,59.48v-13.02h-2.14v-4.3h4.39v3.35h1.21c.48-1.16,1.22-2.03,2.22-2.63,1-.6,2.15-.89,3.44-.89h1.44v3.7h-1.65c-1.58,0-2.75.45-3.52,1.36-.77.91-1.15,2.11-1.15,3.61v8.83h-4.24Z"/><path d="M173,66.41v-9.44h-.12c-.5.9-1.22,1.61-2.17,2.11-.94.5-2.07.75-3.38.75-1.66,0-3.07-.37-4.26-1.11-1.18-.74-2.09-1.79-2.71-3.13-.63-1.35-.94-2.94-.94-4.76s.32-3.42.97-4.76c.64-1.35,1.58-2.39,2.81-3.13,1.23-.74,2.73-1.11,4.5-1.11,1.42,0,2.65.27,3.67.81,1.02.54,1.84,1.31,2.45,2.31h1.21v-2.77h4.39v4.3h-2.14v19.95h-4.3ZM168.47,56.11c1.39,0,2.49-.39,3.31-1.17.82-.78,1.23-1.83,1.23-3.16v-1.91c0-1.33-.41-2.38-1.23-3.16-.82-.78-1.92-1.17-3.31-1.17-1.54,0-2.71.47-3.52,1.4s-1.21,2.23-1.21,3.88.4,2.95,1.21,3.88,1.98,1.4,3.52,1.4Z"/><path d="M182.99,59.48v-23.39h10.94c2.62,0,4.65.65,6.09,1.96,1.44,1.31,2.17,3.11,2.17,5.4s-.73,4.07-2.18,5.38c-1.45,1.32-3.48,1.98-6.08,1.98h-6.53v8.66h-4.42ZM187.41,47.04h6.27c1.35,0,2.37-.32,3.08-.95.7-.63,1.05-1.51,1.05-2.63s-.35-2.02-1.05-2.64c-.7-.63-1.73-.94-3.08-.94h-6.27v7.16Z"/><path d="M212.3,59.8c-2.37,0-4.19-.63-5.47-1.89-1.28-1.26-1.92-2.97-1.92-5.12v-10.63h4.3v9.76c0,1.35.35,2.36,1.04,3.05.69.68,1.72,1.02,3.09,1.02,1.44,0,2.55-.37,3.32-1.1.77-.73,1.15-1.76,1.15-3.09v-9.64h4.3v13.02h2.17v4.3h-4.42v-2.77h-1.21c-.67,1-1.52,1.77-2.53,2.29s-2.29.79-3.83.79Z"/><path d="M227.6,59.48v-24.25h4.3v24.25h-4.3Z"/><path d="M243.39,59.83c-2.5,0-4.47-.52-5.92-1.57-1.44-1.05-2.22-2.52-2.34-4.4h4.19c.13.9.55,1.57,1.24,2.01.69.43,1.69.65,3,.65,2.21,0,3.32-.64,3.32-1.91,0-.54-.17-.95-.5-1.24-.34-.29-.9-.51-1.69-.66l-3.84-.72c-3.37-.65-5.05-2.25-5.05-4.79,0-1.64.64-2.94,1.93-3.91,1.29-.97,3.06-1.46,5.31-1.46s4.1.5,5.44,1.49c1.34.99,2.08,2.39,2.24,4.2h-4.16c-.21-.87-.61-1.5-1.2-1.89-.59-.39-1.43-.59-2.53-.59-.98,0-1.73.15-2.25.46-.52.31-.78.76-.78,1.36,0,.44.16.8.49,1.07.33.27.85.47,1.56.61l3.9.75c1.77.35,3.07.92,3.9,1.73.83.81,1.24,1.9,1.24,3.26,0,1.75-.65,3.12-1.93,4.1-1.29.98-3.15,1.47-5.57,1.47Z"/><path d="M261.96,59.83c-1.85,0-3.46-.37-4.84-1.11-1.38-.74-2.44-1.79-3.18-3.15-.74-1.36-1.11-2.96-1.11-4.81s.37-3.44,1.1-4.78,1.77-2.37,3.12-3.09c1.35-.72,2.92-1.08,4.73-1.08s3.29.34,4.56,1.02c1.27.68,2.25,1.67,2.95,2.95.69,1.28,1.04,2.8,1.04,4.55v1.5h-13.37c.17,1.46.69,2.58,1.54,3.36.86.78,2,1.17,3.42,1.17,1.06,0,1.92-.2,2.58-.59s1.13-.99,1.4-1.78h4.33c-.4,1.83-1.33,3.26-2.79,4.29-1.45,1.03-3.29,1.54-5.5,1.54ZM257.08,48.92h9.12c-.15-1.19-.61-2.1-1.37-2.73-.76-.62-1.78-.94-3.05-.94s-2.28.32-3.09.95c-.81.63-1.35,1.54-1.62,2.71Z"/></svg>